<svg width="393" height="274" viewBox="0 0 393 274" xmlns="http://www.w3.org/2000/svg">
    <g fill="#FFF" fill-rule="evenodd" opacity=".15">
        <circle cx="1.5" cy="1.5" r="1.5"/>
        <circle cx="31.5" cy="1.5" r="1.5"/>
        <circle cx="61.5" cy="1.5" r="1.5"/>
        <circle cx="91.5" cy="1.5" r="1.5"/>
        <circle cx="121.5" cy="1.5" r="1.5"/>
        <circle cx="151.5" cy="1.5" r="1.5"/>
        <circle cx="181.5" cy="1.5" r="1.5"/>
        <circle cx="211.5" cy="1.5" r="1.5"/>
        <circle cx="241.5" cy="1.5" r="1.5"/>
        <circle cx="271.5" cy="1.5" r="1.5"/>
        <circle cx="301.5" cy="1.5" r="1.5"/>
        <circle cx="331.5" cy="1.5" r="1.5"/>
        <circle cx="361.5" cy="1.5" r="1.5"/>
        <circle cx="391.5" cy="1.5" r="1.5"/>
        <circle cx="1.5" cy="31.5" r="1.5"/>
        <circle cx="31.5" cy="31.5" r="1.5"/>
        <circle cx="61.5" cy="31.5" r="1.5"/>
        <circle cx="91.5" cy="31.5" r="1.5"/>
        <circle cx="121.5" cy="31.5" r="1.5"/>
        <circle cx="151.5" cy="31.5" r="1.5"/>
        <circle cx="181.5" cy="31.5" r="1.5"/>
        <circle cx="211.5" cy="31.5" r="1.5"/>
        <circle cx="241.5" cy="31.5" r="1.5"/>
        <circle cx="271.5" cy="31.5" r="1.5"/>
        <circle cx="301.5" cy="31.5" r="1.5"/>
        <circle cx="331.5" cy="31.5" r="1.5"/>
        <circle cx="361.5" cy="31.5" r="1.5"/>
        <circle cx="391.5" cy="31.5" r="1.5"/>
        <circle cx="1.5" cy="61.5" r="1.5"/>
        <circle cx="31.5" cy="61.5" r="1.5"/>
        <circle cx="61.5" cy="61.5" r="1.5"/>
        <circle cx="91.5" cy="61.5" r="1.5"/>
        <circle cx="121.5" cy="61.5" r="1.5"/>
        <circle cx="151.5" cy="61.5" r="1.5"/>
        <circle cx="181.5" cy="61.5" r="1.5"/>
        <circle cx="211.5" cy="61.5" r="1.5"/>
        <circle cx="241.5" cy="61.5" r="1.5"/>
        <circle cx="271.5" cy="61.5" r="1.5"/>
        <circle cx="301.5" cy="61.5" r="1.5"/>
        <circle cx="331.5" cy="61.5" r="1.5"/>
        <circle cx="361.5" cy="61.5" r="1.5"/>
        <circle cx="391.5" cy="61.5" r="1.5"/>
        <circle cx="1.5" cy="91.5" r="1.5"/>
        <circle cx="31.5" cy="91.5" r="1.5"/>
        <circle cx="61.5" cy="91.5" r="1.5"/>
        <circle cx="91.5" cy="91.5" r="1.5"/>
        <circle cx="121.5" cy="91.5" r="1.5"/>
        <circle cx="151.5" cy="91.5" r="1.5"/>
        <circle cx="181.5" cy="91.5" r="1.5"/>
        <circle cx="211.5" cy="91.5" r="1.5"/>
        <circle cx="241.5" cy="91.5" r="1.5"/>
        <circle cx="271.5" cy="91.5" r="1.5"/>
        <circle cx="301.5" cy="91.5" r="1.5"/>
        <circle cx="331.5" cy="91.5" r="1.5"/>
        <circle cx="361.5" cy="91.5" r="1.5"/>
        <circle cx="391.5" cy="91.5" r="1.5"/>
        <circle cx="1.5" cy="121.5" r="1.5"/>
        <circle cx="31.5" cy="121.5" r="1.5"/>
        <circle cx="61.5" cy="121.5" r="1.5"/>
        <circle cx="91.5" cy="121.5" r="1.5"/>
        <circle cx="121.5" cy="121.5" r="1.5"/>
        <circle cx="151.5" cy="121.5" r="1.5"/>
        <circle cx="181.5" cy="121.5" r="1.5"/>
        <circle cx="211.5" cy="121.5" r="1.5"/>
        <circle cx="241.5" cy="121.5" r="1.5"/>
        <circle cx="271.5" cy="121.5" r="1.5"/>
        <circle cx="301.5" cy="121.5" r="1.5"/>
        <circle cx="331.5" cy="121.5" r="1.5"/>
        <circle cx="361.5" cy="121.5" r="1.5"/>
        <circle cx="391.5" cy="121.5" r="1.5"/>
        <circle cx="1.5" cy="151.5" r="1.5"/>
        <circle cx="31.5" cy="151.5" r="1.5"/>
        <circle cx="61.5" cy="151.5" r="1.5"/>
        <circle cx="91.5" cy="151.5" r="1.5"/>
        <circle cx="121.5" cy="151.5" r="1.5"/>
        <circle cx="151.5" cy="151.5" r="1.5"/>
        <circle cx="181.5" cy="151.5" r="1.5"/>
        <circle cx="211.5" cy="151.5" r="1.5"/>
        <circle cx="241.5" cy="151.5" r="1.5"/>
        <circle cx="271.5" cy="151.5" r="1.5"/>
        <circle cx="301.5" cy="151.5" r="1.5"/>
        <circle cx="331.5" cy="151.5" r="1.5"/>
        <circle cx="361.5" cy="151.5" r="1.5"/>
        <circle cx="391.5" cy="151.5" r="1.5"/>
        <circle cx="1.5" cy="181.5" r="1.5"/>
        <circle cx="31.5" cy="181.5" r="1.5"/>
        <circle cx="61.5" cy="181.5" r="1.5"/>
        <circle cx="91.5" cy="181.5" r="1.5"/>
        <circle cx="121.5" cy="181.5" r="1.5"/>
        <circle cx="151.5" cy="181.5" r="1.5"/>
        <circle cx="181.5" cy="181.5" r="1.5"/>
        <circle cx="211.5" cy="181.5" r="1.5"/>
        <circle cx="241.5" cy="181.5" r="1.5"/>
        <circle cx="271.5" cy="181.5" r="1.5"/>
        <circle cx="301.5" cy="181.5" r="1.5"/>
        <circle cx="331.5" cy="181.5" r="1.5"/>
        <circle cx="361.5" cy="181.5" r="1.5"/>
        <circle cx="391.5" cy="181.5" r="1.5"/>
        <circle cx="1.5" cy="211.5" r="1.5"/>
        <circle cx="31.5" cy="211.5" r="1.5"/>
        <circle cx="61.5" cy="211.5" r="1.5"/>
        <circle cx="91.5" cy="211.5" r="1.5"/>
        <circle cx="121.5" cy="211.5" r="1.5"/>
        <circle cx="151.5" cy="211.5" r="1.5"/>
        <circle cx="181.5" cy="211.5" r="1.5"/>
        <circle cx="211.5" cy="211.5" r="1.5"/>
        <circle cx="241.5" cy="211.5" r="1.5"/>
        <circle cx="271.5" cy="211.5" r="1.5"/>
        <circle cx="301.5" cy="211.5" r="1.5"/>
        <circle cx="331.5" cy="211.5" r="1.5"/>
        <circle cx="361.5" cy="211.5" r="1.5"/>
        <circle cx="391.5" cy="211.5" r="1.5"/>
        <circle cx="1.5" cy="241.5" r="1.5"/>
        <circle cx="31.5" cy="241.5" r="1.5"/>
        <circle cx="61.5" cy="241.5" r="1.5"/>
        <circle cx="91.5" cy="241.5" r="1.5"/>
        <circle cx="121.5" cy="241.5" r="1.5"/>
        <circle cx="151.5" cy="241.5" r="1.5"/>
        <circle cx="181.5" cy="241.5" r="1.5"/>
        <circle cx="211.5" cy="241.5" r="1.5"/>
        <circle cx="241.5" cy="241.5" r="1.5"/>
        <circle cx="271.5" cy="241.5" r="1.5"/>
        <circle cx="301.5" cy="241.5" r="1.5"/>
        <circle cx="331.5" cy="241.5" r="1.5"/>
        <circle cx="361.5" cy="241.5" r="1.5"/>
        <circle cx="391.5" cy="241.5" r="1.5"/>
        <circle cx="1.5" cy="271.5" r="1.5"/>
        <circle cx="31.5" cy="271.5" r="1.5"/>
        <circle cx="61.5" cy="271.5" r="1.5"/>
        <circle cx="91.5" cy="271.5" r="1.5"/>
        <circle cx="121.5" cy="271.5" r="1.5"/>
        <circle cx="151.5" cy="271.5" r="1.5"/>
        <circle cx="181.5" cy="271.5" r="1.5"/>
        <circle cx="211.5" cy="271.5" r="1.5"/>
        <circle cx="241.5" cy="271.5" r="1.5"/>
        <circle cx="271.5" cy="271.5" r="1.5"/>
        <circle cx="301.5" cy="271.5" r="1.5"/>
        <circle cx="331.5" cy="271.5" r="1.5"/>
        <circle cx="361.5" cy="271.5" r="1.5"/>
        <circle cx="391.5" cy="271.5" r="1.5"/>
    </g>
</svg>
